<svg width="112" height="28" viewBox="0 0 112 28" fill="none" xmlns="http://www.w3.org/2000/svg">
<path d="M90.6934 13.496L94.85 24.5C93.625 24.3251 92.4007 24.1059 91.1541 23.9085L88.8125 17.8284L86.4067 23.4066C85.2258 23.2092 84.0659 23.1434 82.8849 22.9901L87.1067 13.3652L83.2775 3.5H86.8217L88.9651 9.01182L91.2625 3.5H94.8493L90.6934 13.496ZM80.479 3.5H77.2632V22.575C78.3133 22.6408 79.4066 22.6842 80.479 22.8151V3.5ZM74.4849 22.356C71.5541 22.1592 68.6224 21.9849 65.6257 21.9184V3.50008H68.9067V18.8125C70.7882 18.8559 72.6691 19.0086 74.4849 19.096V22.356ZM62.125 10.9599V14.2408H57.6408V21.7H54.4041V3.5H63.5915V6.78089H57.6415V10.96H62.1257L62.125 10.9599ZM48.8908 6.78089V21.875C47.7967 21.875 46.6817 21.875 45.6092 21.9184V6.78089H42.2185V3.5H52.3025V6.78089H48.8908ZM38.6751 14.4151C37.2317 14.4151 35.525 14.4151 34.3001 14.4816V19.3592C36.2251 19.2276 38.15 19.075 40.0967 19.0092V22.1592L31.0192 22.8816V3.5H40.0961V6.78089H34.3V11.2C35.5691 11.2 37.5158 11.1342 38.6749 11.1342V14.4158L38.6751 14.4151ZM20.496 12.5776V24.0401C19.3158 24.1717 18.2651 24.325 17.15 24.5V3.5H20.2783L24.5435 15.4225V3.5H27.8251V23.1434C26.6658 23.3408 25.4843 23.4066 24.2376 23.5809L20.496 12.5776Z" fill="white"/>
</svg>
